<svg width="898" height="353" viewBox="0 0 898 353" fill="none" xmlns="http://www.w3.org/2000/svg">
<g filter="url(#filter0_d_90_74)">
<path d="M793.485 253.545C762.366 253.545 738.225 244.85 721.064 227.46C703.903 209.841 695.322 185.244 695.322 153.667V149.205C695.322 117.857 704.246 93.0304 722.094 74.7251C739.942 56.1909 763.738 46.9238 793.485 46.9238C823.002 46.9238 846.685 56.1909 864.532 74.7251C882.609 93.2593 891.647 118.086 891.647 149.205V153.667C891.647 184.557 882.838 208.926 865.219 226.774C847.6 244.622 823.689 253.545 793.485 253.545ZM793.485 223.685C813.621 223.685 829.295 217.507 840.507 205.151C851.947 192.566 857.668 175.176 857.668 152.98V149.205C857.668 127.01 851.833 109.276 840.163 96.005C828.494 82.5048 812.934 75.7548 793.485 75.7548C774.035 75.7548 758.476 82.3904 746.806 95.6618C735.136 108.704 729.302 126.552 729.302 149.205V152.98C729.302 175.176 734.908 192.566 746.12 205.151C757.56 217.507 773.349 223.685 793.485 223.685Z" fill="white"/>
</g>
<g filter="url(#filter1_d_90_74)">
<path d="M568.355 76.098C549.821 76.098 535.177 82.3904 524.422 94.9754C513.897 107.331 508.634 124.264 508.634 145.773V248.397H474.998V52.4154H503.143L506.575 97.0347C512.066 81.0175 520.99 68.6614 533.346 59.9664C545.702 51.2713 560.69 46.9238 578.309 46.9238C602.563 46.9238 621.326 54.246 634.598 68.8903C648.098 83.3057 654.848 103.442 654.848 129.298V248.397H621.212V136.849C621.212 116.713 616.75 101.611 607.826 91.5431C598.902 81.2464 585.745 76.098 568.355 76.098Z" fill="white"/>
</g>
<g filter="url(#filter2_d_90_74)">
<path d="M443.637 272.766C443.637 293.817 435.057 309.948 417.895 321.16C400.734 332.601 376.022 338.322 343.759 338.322H340.67C310.237 338.322 287.813 334.432 273.398 326.652C258.982 319.101 251.774 306.974 251.774 290.27C251.774 278.829 255.435 269.333 262.758 261.782C270.309 254.231 281.406 248.625 296.05 244.964C283.923 243.134 274.656 239.244 268.249 233.295C262.071 227.345 258.982 219.566 258.982 209.955C258.982 200.116 262.643 191.993 269.965 185.586C277.516 178.951 288.385 174.374 302.572 171.857C288.385 167.739 277.745 160.989 270.652 151.607C263.558 142.226 260.012 130.098 260.012 115.225V114.882C260.012 96.8054 266.19 82.2755 278.546 71.2923C290.902 60.0803 308.407 53.3302 331.059 51.042C332.661 50.8132 335.407 50.5844 339.297 50.3555C343.187 49.8979 346.276 49.6691 348.564 49.6691C365.725 48.7538 377.395 46.008 383.573 41.4317C389.751 36.6265 400.04 27.245 400.04 13.2872V13.2872C400.04 11.2021 401.73 9.51172 403.815 9.51172H424.76C427.982 9.51172 430.595 12.1241 430.595 15.3466V15.3466C430.595 29.9908 426.362 40.402 417.895 46.5801C409.658 52.5293 395.357 55.8471 374.992 56.5336H375.679C392.382 58.593 405.768 64.9998 415.836 75.7542C425.904 86.2798 430.938 99.0935 430.938 114.195V115.568C430.938 136.391 423.158 152.751 407.599 164.65C392.268 176.548 371.102 182.497 344.102 182.497H337.581C320.191 182.497 307.606 183.985 299.826 186.959C292.275 189.705 288.5 194.51 288.5 201.375C288.5 207.324 291.245 211.671 296.737 214.417C302.229 216.934 310.809 218.078 322.479 217.85H368.471C393.183 217.85 411.832 222.54 424.417 231.922C437.231 241.074 443.637 254.689 443.637 272.766ZM344.102 157.785C361.263 157.785 374.42 154.124 383.573 146.802C392.954 139.48 397.645 129.183 397.645 115.912V115.225C397.416 101.038 392.954 90.2841 384.259 82.962C375.564 75.411 363.094 71.6355 346.848 71.6355C345.933 71.6355 345.017 71.7499 344.102 71.9788C343.187 71.9788 341.585 72.0932 339.297 72.322C324.881 73.2372 313.555 77.5848 305.318 85.3645C297.08 92.9155 293.076 102.983 293.305 115.568V116.255C293.305 129.526 297.652 139.823 306.347 147.145C315.271 154.238 327.856 157.785 344.102 157.785ZM337.924 310.52H344.102C366.526 310.52 383.573 307.431 395.243 301.253C406.912 295.075 412.747 286.151 412.747 274.482C412.747 264.871 408.972 257.664 401.421 252.859C393.87 248.282 382.429 245.994 367.098 245.994H330.716C315.614 247.138 304.059 250.57 296.05 256.291C288.271 262.24 284.381 270.134 284.381 279.973V280.317C284.381 289.698 288.957 297.02 298.11 302.283C307.491 307.775 320.763 310.52 337.924 310.52Z" fill="white"/>
</g>
<g opacity="0.3" filter="url(#filter3_d_90_74)">
<path d="M794.393 258.778C762.825 258.778 738.336 249.958 720.927 232.316C703.518 214.443 694.813 189.49 694.813 157.458V152.931C694.813 121.131 703.866 95.946 721.972 77.3764C740.077 58.5747 764.217 49.1738 794.393 49.1738C824.336 49.1738 848.361 58.5747 866.466 77.3764C884.804 96.1781 893.972 121.363 893.972 152.931V157.458C893.972 188.794 885.036 213.515 867.163 231.62C849.289 249.725 825.033 258.778 794.393 258.778ZM794.393 228.486C814.82 228.486 830.72 222.219 842.094 209.685C853.7 196.918 859.503 179.277 859.503 156.761V152.931C859.503 130.416 853.584 112.427 841.745 98.9635C829.907 85.2685 814.123 78.4209 794.393 78.4209C774.663 78.4209 758.879 85.1524 747.04 98.6154C735.202 111.846 729.283 129.952 729.283 152.931V156.761C729.283 179.277 734.97 196.918 746.344 209.685C757.95 222.219 773.966 228.486 794.393 228.486Z" fill="white"/>
</g>
<g opacity="0.3" filter="url(#filter4_d_90_74)">
<path d="M566.015 78.7691C547.214 78.7691 532.358 85.1524 521.448 97.919C510.771 110.453 505.432 127.63 505.432 149.45V253.555H471.311V54.7447H499.861L503.343 100.008C508.914 83.7597 517.967 71.2252 530.501 62.4047C543.036 53.5841 558.239 49.1738 576.113 49.1738C600.717 49.1738 619.751 56.6017 633.214 71.4574C646.909 86.0809 653.757 106.507 653.757 132.737V253.555H619.635V140.397C619.635 119.97 615.109 104.65 606.056 94.4372C597.004 83.9918 583.657 78.7691 566.015 78.7691Z" fill="white"/>
</g>
<g opacity="0.3" filter="url(#filter5_d_90_74)">
<path d="M439.495 278.279C439.495 299.634 430.79 315.998 413.381 327.372C395.972 338.978 370.903 344.781 338.175 344.781H335.041C304.169 344.781 281.421 340.835 266.798 332.943C252.174 325.283 244.862 312.981 244.862 296.036C244.862 284.43 248.576 274.797 256.004 267.137C263.664 259.477 274.922 253.79 289.778 250.076C277.475 248.219 268.074 244.273 261.575 238.238C255.308 232.203 252.174 224.311 252.174 214.562C252.174 204.581 255.888 196.34 263.316 189.841C270.976 183.109 282.002 178.467 296.393 175.914C282.002 171.736 271.208 164.888 264.012 155.371C256.816 145.854 253.219 133.552 253.219 118.464V118.116C253.219 99.7784 259.486 85.0388 272.02 73.897C284.555 62.5231 302.312 55.6756 325.292 53.3544C326.917 53.1223 329.702 52.8901 333.648 52.658C337.594 52.1938 340.728 51.9617 343.049 51.9617C360.458 51.0332 372.296 48.2477 378.563 43.6053C384.831 38.7308 387.964 29.2139 387.964 15.0546V11.2246H426.264V17.1437C426.264 31.9994 421.97 42.5608 413.381 48.8281C405.025 54.8632 390.518 58.2289 369.859 58.9253H370.555C387.5 61.0144 401.079 67.5137 411.292 78.4233C421.506 89.1009 426.612 102.1 426.612 117.419V118.812C426.612 139.935 418.72 156.532 402.936 168.602C387.384 180.672 365.913 186.707 338.523 186.707H331.907C314.266 186.707 301.5 188.216 293.607 191.234C285.948 194.019 282.118 198.894 282.118 205.857C282.118 211.892 284.903 216.303 290.474 219.088C296.045 221.641 304.749 222.802 316.587 222.57H363.243C388.312 222.57 407.23 227.328 419.997 236.845C432.996 246.13 439.495 259.941 439.495 278.279ZM338.523 161.638C355.932 161.638 369.279 157.924 378.563 150.497C388.08 143.069 392.839 132.623 392.839 119.16V118.464C392.607 104.073 388.08 93.163 379.26 85.7351C370.439 78.0752 357.789 74.2452 341.308 74.2452C340.38 74.2452 339.451 74.3612 338.523 74.5934C337.594 74.5934 335.969 74.7094 333.648 74.9415C319.025 75.87 307.535 80.2803 299.178 88.1724C290.822 95.8323 286.76 106.046 286.992 118.812V119.509C286.992 132.972 291.402 143.417 300.223 150.845C309.276 158.04 322.042 161.638 338.523 161.638ZM332.255 316.578H338.523C361.27 316.578 378.563 313.445 390.402 307.178C402.24 300.91 408.159 291.858 408.159 280.02C408.159 270.27 404.329 262.959 396.669 258.084C389.009 253.442 377.403 251.121 361.851 251.121H324.944C309.624 252.281 297.902 255.763 289.778 261.566C281.885 267.601 277.939 275.609 277.939 285.59V285.939C277.939 295.456 282.582 302.883 291.867 308.222C301.384 313.793 314.846 316.578 332.255 316.578Z" fill="white"/>
</g>
<g filter="url(#filter6_d_90_74)">
<path d="M227.183 247.556H192.365L168.341 183.143H62.146L38.818 247.556H4L96.6158 0H131.782L227.183 247.556ZM114.373 35.8625L113.328 40.737L72.5914 153.896H157.199L115.069 40.737L114.373 35.8625Z" fill="white"/>
</g>
<defs>
<filter id="filter0_d_90_74" x="691.322" y="46.9238" width="204.325" height="214.621" filterUnits="userSpaceOnUse" color-interpolation-filters="sRGB">
<feFlood flood-opacity="0" result="BackgroundImageFix"/>
<feColorMatrix in="SourceAlpha" type="matrix" values="0 0 0 0 0 0 0 0 0 0 0 0 0 0 0 0 0 0 127 0" result="hardAlpha"/>
<feOffset dy="4"/>
<feGaussianBlur stdDeviation="2"/>
<feComposite in2="hardAlpha" operator="out"/>
<feColorMatrix type="matrix" values="0 0 0 0 0 0 0 0 0 0 0 0 0 0 0 0 0 0 0.25 0"/>
<feBlend mode="normal" in2="BackgroundImageFix" result="effect1_dropShadow_90_74"/>
<feBlend mode="normal" in="SourceGraphic" in2="effect1_dropShadow_90_74" result="shape"/>
</filter>
<filter id="filter1_d_90_74" x="470.998" y="46.9238" width="187.85" height="209.473" filterUnits="userSpaceOnUse" color-interpolation-filters="sRGB">
<feFlood flood-opacity="0" result="BackgroundImageFix"/>
<feColorMatrix in="SourceAlpha" type="matrix" values="0 0 0 0 0 0 0 0 0 0 0 0 0 0 0 0 0 0 127 0" result="hardAlpha"/>
<feOffset dy="4"/>
<feGaussianBlur stdDeviation="2"/>
<feComposite in2="hardAlpha" operator="out"/>
<feColorMatrix type="matrix" values="0 0 0 0 0 0 0 0 0 0 0 0 0 0 0 0 0 0 0.25 0"/>
<feBlend mode="normal" in2="BackgroundImageFix" result="effect1_dropShadow_90_74"/>
<feBlend mode="normal" in="SourceGraphic" in2="effect1_dropShadow_90_74" result="shape"/>
</filter>
<filter id="filter2_d_90_74" x="247.774" y="9.51172" width="199.863" height="336.811" filterUnits="userSpaceOnUse" color-interpolation-filters="sRGB">
<feFlood flood-opacity="0" result="BackgroundImageFix"/>
<feColorMatrix in="SourceAlpha" type="matrix" values="0 0 0 0 0 0 0 0 0 0 0 0 0 0 0 0 0 0 127 0" result="hardAlpha"/>
<feOffset dy="4"/>
<feGaussianBlur stdDeviation="2"/>
<feComposite in2="hardAlpha" operator="out"/>
<feColorMatrix type="matrix" values="0 0 0 0 0 0 0 0 0 0 0 0 0 0 0 0 0 0 0.25 0"/>
<feBlend mode="normal" in2="BackgroundImageFix" result="effect1_dropShadow_90_74"/>
<feBlend mode="normal" in="SourceGraphic" in2="effect1_dropShadow_90_74" result="shape"/>
</filter>
<filter id="filter3_d_90_74" x="690.813" y="49.1738" width="207.159" height="217.604" filterUnits="userSpaceOnUse" color-interpolation-filters="sRGB">
<feFlood flood-opacity="0" result="BackgroundImageFix"/>
<feColorMatrix in="SourceAlpha" type="matrix" values="0 0 0 0 0 0 0 0 0 0 0 0 0 0 0 0 0 0 127 0" result="hardAlpha"/>
<feOffset dy="4"/>
<feGaussianBlur stdDeviation="2"/>
<feComposite in2="hardAlpha" operator="out"/>
<feColorMatrix type="matrix" values="0 0 0 0 0 0 0 0 0 0 0 0 0 0 0 0 0 0 0.25 0"/>
<feBlend mode="normal" in2="BackgroundImageFix" result="effect1_dropShadow_90_74"/>
<feBlend mode="normal" in="SourceGraphic" in2="effect1_dropShadow_90_74" result="shape"/>
</filter>
<filter id="filter4_d_90_74" x="467.311" y="49.1738" width="190.446" height="212.381" filterUnits="userSpaceOnUse" color-interpolation-filters="sRGB">
<feFlood flood-opacity="0" result="BackgroundImageFix"/>
<feColorMatrix in="SourceAlpha" type="matrix" values="0 0 0 0 0 0 0 0 0 0 0 0 0 0 0 0 0 0 127 0" result="hardAlpha"/>
<feOffset dy="4"/>
<feGaussianBlur stdDeviation="2"/>
<feComposite in2="hardAlpha" operator="out"/>
<feColorMatrix type="matrix" values="0 0 0 0 0 0 0 0 0 0 0 0 0 0 0 0 0 0 0.25 0"/>
<feBlend mode="normal" in2="BackgroundImageFix" result="effect1_dropShadow_90_74"/>
<feBlend mode="normal" in="SourceGraphic" in2="effect1_dropShadow_90_74" result="shape"/>
</filter>
<filter id="filter5_d_90_74" x="240.862" y="11.2246" width="202.633" height="341.557" filterUnits="userSpaceOnUse" color-interpolation-filters="sRGB">
<feFlood flood-opacity="0" result="BackgroundImageFix"/>
<feColorMatrix in="SourceAlpha" type="matrix" values="0 0 0 0 0 0 0 0 0 0 0 0 0 0 0 0 0 0 127 0" result="hardAlpha"/>
<feOffset dy="4"/>
<feGaussianBlur stdDeviation="2"/>
<feComposite in2="hardAlpha" operator="out"/>
<feColorMatrix type="matrix" values="0 0 0 0 0 0 0 0 0 0 0 0 0 0 0 0 0 0 0.25 0"/>
<feBlend mode="normal" in2="BackgroundImageFix" result="effect1_dropShadow_90_74"/>
<feBlend mode="normal" in="SourceGraphic" in2="effect1_dropShadow_90_74" result="shape"/>
</filter>
<filter id="filter6_d_90_74" x="0" y="0" width="231.184" height="255.557" filterUnits="userSpaceOnUse" color-interpolation-filters="sRGB">
<feFlood flood-opacity="0" result="BackgroundImageFix"/>
<feColorMatrix in="SourceAlpha" type="matrix" values="0 0 0 0 0 0 0 0 0 0 0 0 0 0 0 0 0 0 127 0" result="hardAlpha"/>
<feOffset dy="4"/>
<feGaussianBlur stdDeviation="2"/>
<feComposite in2="hardAlpha" operator="out"/>
<feColorMatrix type="matrix" values="0 0 0 0 0 0 0 0 0 0 0 0 0 0 0 0 0 0 0.25 0"/>
<feBlend mode="normal" in2="BackgroundImageFix" result="effect1_dropShadow_90_74"/>
<feBlend mode="normal" in="SourceGraphic" in2="effect1_dropShadow_90_74" result="shape"/>
</filter>
</defs>
</svg>
