<svg width="300" height="115" viewBox="0 0 930 392" fill="none" xmlns="http://www.w3.org/2000/svg">
<path d="M725.752 247.712L725.759 247.72L725.767 247.727C743.689 265.889 768.751 274.773 800.485 274.773C831.363 274.773 856.169 265.626 874.516 247.041C892.863 228.456 901.875 203.198 901.875 171.667V167.205C901.875 135.429 892.625 109.733 873.85 90.4789C855.303 71.2231 830.734 61.6962 800.485 61.6962C770.014 61.6962 745.327 71.218 726.776 90.4791C708.218 109.517 699.095 135.221 699.095 167.205V171.667C699.095 203.836 707.85 229.333 725.752 247.712ZM844.722 116.116L844.731 116.126L844.74 116.136C855.769 128.679 861.44 145.587 861.44 167.205V170.98C861.44 192.624 855.871 209.152 845.118 220.98L845.116 220.982C834.641 232.526 819.915 238.457 800.485 238.457C781.07 238.457 766.219 232.534 755.509 220.981C744.985 209.155 739.529 192.626 739.529 170.98V167.205C739.529 145.106 745.212 128.107 756.211 115.814L756.221 115.804L756.23 115.793C767.221 103.294 781.859 96.9823 800.485 96.9823C819.092 96.9823 833.725 103.394 844.722 116.116Z" fill="white" stroke="white" stroke-width="6.45517"/>
<path d="M515.634 269.625H518.862V266.397V163.773C518.862 142.78 523.993 126.675 533.878 115.07C543.941 103.295 557.64 97.3255 575.355 97.3255C592.087 97.3255 604.237 102.253 612.387 111.657L612.399 111.671L612.411 111.684C620.604 120.928 624.984 135.121 624.984 154.849V266.397V269.625H628.212H661.848H665.076V266.397V147.298C665.076 120.894 658.176 99.8816 643.971 84.7031C629.954 69.2474 610.24 61.6962 585.309 61.6962C567.139 61.6962 551.475 66.1885 538.489 75.3268C528.936 82.0495 521.373 90.839 515.78 101.622L513.361 70.1679L513.131 67.1878H510.143H481.998H478.77V70.4154V266.397V269.625H481.998H515.634Z" fill="white" stroke="white" stroke-width="6.45517"/>
<path d="M425.181 91.5358C418.717 84.6349 410.98 79.4578 402.023 75.9753C412.648 74.2723 420.968 71.3978 426.785 67.1966L426.792 67.192L426.798 67.1873C436.397 60.1825 440.822 48.583 440.822 33.3466C440.822 28.3415 436.765 24.2841 431.76 24.2841H410.815C406.948 24.2841 403.812 27.4195 403.812 31.2872C403.812 43.5759 394.738 52.0986 388.622 56.8599C386.027 58.7731 382.048 60.4639 376.448 61.7815C370.879 63.0919 363.902 63.9887 355.476 64.4416C353.035 64.4473 349.865 64.688 346.013 65.1391C342.221 65.3632 339.411 65.5931 337.671 65.8373C314.615 68.1756 296.401 75.0903 283.389 86.891C270.283 98.5468 263.784 113.986 263.784 132.882V133.225C263.784 148.613 267.459 161.478 275.077 171.554C280.759 179.068 288.499 184.916 298.166 189.171C288.655 191.924 280.836 195.888 274.835 201.162C266.807 208.189 262.755 217.2 262.755 227.955C262.755 238.327 266.121 246.986 273.01 253.62L273.032 253.64L273.053 253.66C277.673 257.95 283.551 261.178 290.586 263.424C281.078 266.975 273.335 271.641 267.475 277.5L267.458 277.518L267.441 277.536C259.481 285.744 255.547 296.071 255.547 308.27C255.547 317.095 257.455 324.895 261.406 331.542C265.357 338.19 271.237 343.494 278.883 347.502C294.021 355.665 317.1 359.549 347.67 359.549H350.759C383.318 359.549 408.759 353.791 426.671 341.856C444.767 330.029 453.865 312.867 453.865 290.766C453.865 271.836 447.098 257.169 433.319 247.314C419.94 237.353 400.49 232.622 375.471 232.622H329.479H329.447L329.416 232.623C317.9 232.848 309.942 231.694 305.131 229.506C302.836 228.349 301.283 226.95 300.288 225.374C299.289 223.793 298.727 221.837 298.727 219.375C298.727 216.572 299.483 214.381 300.869 212.617C302.285 210.815 304.545 209.223 307.929 207.993L307.954 207.983L307.979 207.974C315.172 205.224 327.251 203.725 344.581 203.725H351.102C378.538 203.725 400.487 197.683 416.568 185.207C432.977 172.655 441.166 155.319 441.166 133.568V132.195C441.166 116.302 435.838 102.684 425.181 91.5358ZM388.587 162.258L388.572 162.269L388.557 162.282C380.189 168.976 367.859 172.557 351.102 172.557C335.306 172.557 323.544 169.11 315.391 162.647C307.573 156.045 303.532 146.733 303.532 134.255V133.568V133.539L303.532 133.51C303.317 121.72 307.034 112.587 314.499 105.744L314.516 105.728L314.534 105.711C322.087 98.5774 332.627 94.424 346.501 93.5431L346.56 93.5394L346.618 93.5335C348.911 93.3042 350.367 93.2063 351.102 93.2063H351.499L351.885 93.11C352.552 92.9432 353.204 92.8631 353.848 92.8631C369.633 92.8631 381.237 96.5329 389.143 103.399L389.162 103.415L389.18 103.431C396.985 110.003 401.195 119.762 401.418 133.252V133.912C401.418 146.32 397.087 155.623 388.587 162.258ZM306.74 317.498L306.73 317.491L306.719 317.485C298.416 312.711 294.608 306.378 294.608 298.317V297.973C294.608 289.152 298.021 282.218 304.969 276.887C312.285 271.678 323.124 268.35 337.839 267.222H374.098C389.197 267.222 399.917 269.492 406.717 273.6C413.238 277.762 416.52 283.89 416.52 292.482C416.52 297.751 415.211 302.273 412.67 306.161C410.114 310.069 406.198 313.507 400.732 316.401C389.747 322.217 373.321 325.293 351.102 325.293H344.924C328.035 325.293 315.42 322.578 306.74 317.498Z" fill="white" stroke="white" stroke-width="6.45517"/>
<path opacity="0.3" d="M717.535 260.439L717.568 260.473L717.601 260.507C738.432 281.615 767.061 291.286 801.393 291.286C835.064 291.286 863.344 281.23 884.487 259.812C905.633 238.391 915.48 209.673 915.48 175.458V170.931C915.48 136.41 905.361 107.319 883.884 85.28C862.638 63.235 834.629 52.6663 801.393 52.6663C767.961 52.6663 739.821 63.2124 718.553 85.2811C697.256 107.142 687.306 136.27 687.306 170.931V175.458C687.306 210.153 696.798 239.149 717.535 260.439ZM837.77 126.451L837.81 126.497L837.851 126.543C846.81 136.732 851.995 151.008 851.995 170.931V174.761C851.995 194.798 846.872 208.562 838.359 217.926L838.35 217.936C830.288 226.821 818.646 231.979 801.393 231.979C784.215 231.979 772.406 226.86 764.084 217.93C755.8 208.571 750.791 194.794 750.791 174.761V170.931C750.791 150.442 756.027 136.153 764.852 126.289L764.894 126.242L764.935 126.195C773.723 116.201 785.363 110.928 801.393 110.928C817.337 110.928 828.955 116.254 837.77 126.451Z" fill="white" stroke="white" stroke-width="29.015"/>
<path opacity="0.3" d="M521.553 74.5771L521.326 71.632L520.296 58.2372H506.861H478.311H463.803V72.7447V271.555V286.063H478.311H512.432H526.94V271.555V167.45C526.94 147.95 531.687 134.494 539.485 125.335C547.288 116.209 557.892 111.277 573.015 111.277C587.697 111.277 596.52 115.508 602.093 121.939L602.146 122L602.2 122.06C607.97 128.57 612.128 139.805 612.128 158.397V271.555V286.063H626.635H660.757H675.264V271.555V150.737C675.264 122.043 667.741 97.6791 650.884 79.6275C634.068 61.126 610.764 52.6663 583.113 52.6663C562.762 52.6663 544.518 57.7272 529.152 68.5403L537.501 80.4047L529.152 68.5403C526.481 70.4203 523.948 72.434 521.553 74.5771Z" fill="white" stroke="white" stroke-width="29.015"/>
<path opacity="0.3" d="M368.851 283.628C383.307 283.628 391.695 285.851 396.014 288.41C399.046 290.38 400.651 292.868 400.651 298.02C400.651 301.396 399.848 303.804 398.577 305.748C397.245 307.786 394.874 310.1 390.614 312.356C381.851 316.995 367.348 320.071 345.523 320.071H339.255C323.069 320.071 312.556 317.425 306.195 313.702L306.147 313.673L306.098 313.645C300.634 310.504 299.447 307.523 299.447 303.939V303.59C299.447 298.184 301.253 294.476 305.403 291.235C310.466 287.696 319.003 284.711 332.508 283.628H368.851ZM259.44 182.121C262.023 185.537 264.92 188.639 268.102 191.441C265.491 193.1 263.035 194.927 260.75 196.934C250.142 206.222 244.667 218.457 244.667 232.562C244.667 245.731 249.049 257.576 258.512 266.688L258.607 266.779L258.703 266.869C259.259 267.385 259.826 267.887 260.404 268.376C257.656 270.363 255.097 272.527 252.746 274.879L252.667 274.957L252.589 275.038C242.294 285.654 237.355 299.022 237.355 314.036C237.355 324.633 239.659 334.607 244.875 343.383C250.089 352.156 257.704 358.874 266.987 363.753C284.853 373.365 310.545 377.289 342.041 377.289H345.175C379.246 377.289 407.591 371.312 428.373 357.48C449.977 343.342 461.002 322.35 461.002 296.279C461.002 274.104 452.883 255.566 435.549 243.126C419.215 231.007 396.701 226.062 370.243 226.062H323.587H323.445L323.303 226.065C312.324 226.28 306.373 225.114 303.754 224.004C303.707 223.978 303.665 223.954 303.626 223.931C303.625 223.907 303.625 223.883 303.625 223.857C303.625 223.833 303.625 223.809 303.626 223.787C303.934 223.58 304.528 223.245 305.565 222.868L305.677 222.827L305.789 222.784C311.044 220.775 321.535 219.215 338.907 219.215H345.523C374.875 219.215 399.868 212.761 418.79 198.094C438.391 183.086 448.12 162.105 448.12 136.812V135.419C448.12 116.542 441.693 99.9271 428.83 86.4515C427.256 84.7746 425.623 83.1864 423.933 81.6859C425.678 80.7373 427.328 79.7069 428.875 78.589L428.904 78.5681L428.933 78.5471C442.614 68.5641 447.772 52.6611 447.772 35.1437V29.2246V14.7171H433.264H394.964H380.457V29.2246V33.0546C380.457 45.5507 377.643 49.2757 376.759 50.0679C375.736 50.7664 373.34 51.9536 368.662 53.0544C363.922 54.1697 357.638 55.0143 349.623 55.456C346.672 55.4809 343.197 55.7599 339.378 56.2004C335.795 56.4154 332.749 56.6539 330.564 56.9478C305.751 59.4935 284.803 67.0867 269.326 81.1035C253.422 95.2687 245.711 114.095 245.711 136.116V136.464C245.711 153.864 249.886 169.484 259.44 182.121ZM303.349 223.999C303.345 224.003 303.343 224.006 303.343 224.006C303.343 224.006 303.345 224.003 303.349 223.999ZM376.637 157.06L376.569 157.114L376.501 157.168C370.744 161.773 361.116 165.131 345.523 165.131C331.099 165.131 322.017 161.994 316.411 157.615C311.52 153.423 308.5 147.384 308.5 137.509V136.812V136.68L308.497 136.549C308.33 127.355 311.097 121.344 315.981 116.867L316.061 116.794L316.14 116.72C321.421 111.732 329.375 108.194 341.567 107.42L341.83 107.403L342.092 107.377C343.169 107.269 344.01 107.196 344.641 107.151C345.2 107.111 345.464 107.103 345.517 107.101C345.529 107.101 345.531 107.101 345.523 107.101H347.309L348.698 106.753C362.875 106.814 371.52 110.149 376.747 114.689L376.831 114.761L376.915 114.832C381.738 118.893 385.128 125.335 385.331 136.587V137.16C385.331 146.742 382.193 152.724 376.637 157.06Z" fill="white" stroke="white" stroke-width="29.015"/>
<path d="M234.183 269.156H239.429L237.543 264.261L142.141 16.7055L141.253 14.4H138.782H103.616H101.119L100.244 16.7386L7.62824 264.294L5.80947 269.156H11H45.818H48.343L49.2029 266.782L71.6711 204.743H172.841L195.992 266.814L196.866 269.156H199.365H234.183ZM84.7136 168.296L121.241 66.8302L159.017 168.296H84.7136Z" fill="white" stroke="white" stroke-width="7.2"/>
</svg>
