<svg width="300" height="115" viewBox="0 0 1378 526" fill="none" xmlns="http://www.w3.org/2000/svg">
<path d="M1169.4 415.971C1126.61 415.971 1091.96 402.166 1065.45 374.556C1038.93 346.946 1025.68 310.193 1025.68 264.298C1025.68 218.403 1038.93 181.65 1065.45 154.04C1091.96 126.43 1126.61 112.625 1169.4 112.625C1211.82 112.625 1246.28 126.43 1272.8 154.04C1299.31 181.65 1312.57 218.403 1312.57 264.298C1312.57 310.193 1299.31 346.946 1272.8 374.556C1246.28 402.166 1211.82 415.971 1169.4 415.971ZM1169.4 367.425C1195.36 367.425 1215.93 358.465 1231.11 340.546C1246.47 322.444 1254.15 297.028 1254.15 264.298C1254.15 231.568 1246.47 206.152 1231.11 188.05C1215.93 169.948 1195.36 160.897 1169.4 160.897C1143.25 160.897 1122.49 169.948 1107.14 188.05C1091.78 206.152 1084.1 231.568 1084.1 264.298C1084.1 297.028 1091.78 322.444 1107.14 340.546C1122.49 358.465 1143.25 367.425 1169.4 367.425Z" fill="white"/>
<path d="M890.854 112.625C922.67 112.625 947.538 121.493 965.457 139.23C983.559 156.783 992.61 181.925 992.61 214.655V409.115H936.384V222.609C936.384 182.199 915.996 161.994 875.221 161.994C866.261 161.994 857.576 163.731 849.165 167.205C840.754 170.497 832.983 175.434 825.852 182.016C818.721 188.416 812.961 197.101 808.572 208.072C804.184 219.043 801.99 231.568 801.99 245.648V409.115H746.038V119.208H799.796V162.543C810.035 147.366 822.835 135.298 838.194 126.339C853.736 117.196 871.29 112.625 890.854 112.625Z" fill="white"/>
<path d="M645.501 119.208H699.533V398.418C699.533 437.548 687.739 468.541 664.152 491.397C640.747 514.436 606.463 525.955 561.299 525.955C522.901 525.955 492.639 517.27 470.515 499.899C448.39 482.529 435.956 459.032 433.213 429.411H489.439C493.828 463.421 517.964 480.426 561.848 480.426C588.361 480.426 608.566 473.569 622.462 459.855C636.359 446.324 643.307 426.211 643.307 399.515V367.425C621.365 397.412 590.281 412.406 550.054 412.406C509.827 412.406 477.554 398.784 453.235 371.539C429.099 344.112 417.031 307.725 417.031 262.378C417.031 216.849 429.008 180.553 452.961 153.492C477.097 126.247 509.279 112.625 549.505 112.625C591.378 112.625 623.376 128.533 645.501 160.349V119.208ZM560.202 364.134C586.349 364.134 607.011 355.174 622.188 337.255C637.364 319.336 644.952 294.377 644.952 262.378C644.952 230.38 637.364 205.512 622.188 187.776C607.011 169.857 586.349 160.897 560.202 160.897C534.42 160.897 513.85 170.04 498.49 188.324C483.131 206.609 475.451 231.294 475.451 262.378C475.451 293.646 483.131 318.422 498.49 336.706C513.85 354.991 534.42 364.134 560.202 364.134Z" fill="white"/>
<path fill-rule="evenodd" clip-rule="evenodd" d="M86.4219 55.5908H205.459C209.588 55.5908 213.293 58.1293 214.784 61.9804L349.178 409.113H408.923L247.476 0H86.4219V55.5908Z" fill="white"/>
<rect y="368.279" width="194.773" height="49.8355" fill="white"/>
<path d="M1304.63 52.8242V62.9961H1285.48V112.625H1274.07V62.9961H1254.92V52.8242H1304.63ZM1355.55 52.8242H1372V112.625H1361.17V94.4141C1361.17 84.2695 1361.28 74.3848 1361.5 64.7598C1360.22 69.1074 1358.71 73.7012 1356.99 78.541L1344.89 112.625H1335.54L1323.36 78.541C1321.66 73.5918 1320.19 69.0527 1318.93 64.9238C1319.15 74.4668 1319.26 84.2969 1319.26 94.4141V112.625H1308.35V52.8242H1324.79L1335.13 81.8633C1336.69 86.6211 1338.4 92.0352 1340.26 98.1055C1342.06 91.8984 1343.82 86.293 1345.55 81.2891L1355.55 52.8242Z" fill="white"/>
</svg>
