<svg width="310" height="121" viewBox="0 0 159 62" fill="none" xmlns="http://www.w3.org/2000/svg">
<path d="M36.8693 0.293213H13.7584V8.4036H31.227L46.1137 47.9712H55.7303L36.8693 0.293213Z" fill="white"/>
<path d="M24.3497 39.861H0.685547V47.9713H24.3497V39.861Z" fill="white"/>
<path fill-rule="evenodd" clip-rule="evenodd" d="M87.1428 46.7648L87.1163 46.7383C86.9454 51.1392 85.582 54.5143 82.9702 56.8099C81.2815 58.3034 78.8469 59.3747 76.1557 59.9679C73.4598 60.5621 70.4758 60.6836 67.6642 60.2512C62.0601 59.3892 56.9944 56.2833 56.5003 50.1761L56.4648 49.7366H64.2669L64.32 50.0815C64.7374 52.793 67.1766 54.1652 70.0593 54.4517C71.4879 54.5937 72.9848 54.46 74.3085 54.1012C75.6377 53.7409 76.7582 53.1632 77.4654 52.4449L77.4764 52.4336L77.4883 52.4233C77.9435 52.0275 78.3015 51.4368 78.5757 50.6884C78.8492 49.9419 79.0306 49.0628 79.1478 48.1181C79.3825 46.2263 79.3537 44.1307 79.3296 42.4132L79.3295 42.4095L79.3266 42.2001C77.3726 45.264 74.8231 46.973 72.1301 47.6392C69.1478 48.3768 66.0294 47.826 63.404 46.4893C60.3945 45.0421 58.3814 42.406 57.1298 39.3799C55.8786 36.3544 55.3764 32.9132 55.4008 29.7977C55.3687 23.7252 58.2183 16.5652 63.9638 13.8687C66.5422 12.6384 69.7192 12.1513 72.6677 12.846C75.2621 13.4573 77.6698 14.9828 79.3171 17.6948V13.3985H87.1428V46.7648ZM77.3003 38.045C75.9157 40.1669 73.8774 41.5363 71.1803 41.4961L71.1724 41.4961C68.5155 41.5075 66.5171 40.1409 65.1652 38.035C63.8058 35.9173 63.1126 33.0634 63.1126 30.1857C63.1126 27.3079 63.8058 24.4545 65.1652 22.3379C66.517 20.2331 68.5152 18.8679 71.1721 18.8813L71.179 18.8814L71.1859 18.8812C73.9271 18.8025 75.9727 20.1443 77.349 22.2417C78.7343 24.3529 79.4323 27.2241 79.4219 30.1262C79.4114 33.028 78.6927 35.9114 77.3003 38.045Z" fill="white"/>
<path d="M99.8326 17.8781V13.3819H92.3974V47.9954H100.199V26.7881C100.199 25.6947 100.378 24.6591 100.728 23.6791C101.078 22.6987 101.565 21.8666 102.179 21.1769L102.185 21.1689C102.805 20.4349 103.543 19.8797 104.427 19.4986L104.434 19.4957L104.44 19.4926C105.324 19.0738 106.321 18.8566 107.455 18.8566C109.467 18.8566 110.869 19.4056 111.741 20.43L111.747 20.4367C112.637 21.4363 113.158 23.1156 113.239 25.5666V47.9954H121.04V23.7212C121.04 20.0512 120.017 17.2232 117.903 15.3246C115.808 13.4422 112.96 12.5196 109.415 12.5196C107.265 12.5196 105.29 13.041 103.508 14.1046C102.032 14.9516 100.812 16.4127 99.8326 17.8781Z" fill="white"/>
<path fill-rule="evenodd" clip-rule="evenodd" d="M154.376 18.0169C151.625 14.5855 147.494 12.3588 142.016 12.5278C136.539 12.3588 132.408 14.5855 129.657 18.0169C126.913 21.4391 125.554 26.0394 125.555 30.6188C125.555 35.1982 126.915 39.7981 129.659 43.2192C132.411 46.6496 136.541 48.8748 142.016 48.7037C147.492 48.8748 151.622 46.6496 154.374 43.2192C157.118 39.7981 158.478 35.1982 158.478 30.6188C158.479 26.0394 157.12 21.4391 154.376 18.0169ZM148.491 38.757C147.038 40.9427 144.885 42.3699 142.018 42.3583H142.015C139.148 42.3699 136.995 40.9427 135.542 38.757C134.08 36.5593 133.334 33.5994 133.332 30.6165C133.331 27.6335 134.072 24.6745 135.533 22.478C136.985 20.2938 139.139 18.8678 142.014 18.8813L142.018 18.8813C144.894 18.8678 147.048 20.2938 148.5 22.478C149.96 24.6745 150.702 27.6335 150.7 30.6165C150.698 33.5994 149.952 36.5593 148.491 38.757Z" fill="white"/>
<path d="M92.6642 59.8696V52.8814H95.1551C95.6988 52.8814 96.1492 52.9804 96.5064 53.1783C96.8635 53.3762 97.1308 53.6469 97.3082 53.9904C97.4857 54.3316 97.5744 54.7161 97.5744 55.1437C97.5744 55.5737 97.4845 55.9604 97.3048 56.3039C97.1274 56.6451 96.859 56.9158 96.4995 57.116C96.1424 57.3139 95.6931 57.4128 95.1517 57.4128H93.4388V56.5189H95.0562C95.3997 56.5189 95.6783 56.4597 95.8922 56.3414C96.106 56.2209 96.263 56.0571 96.3631 55.8501C96.4631 55.6431 96.5132 55.4076 96.5132 55.1437C96.5132 54.8799 96.4631 54.6456 96.3631 54.4408C96.263 54.2361 96.1049 54.0757 95.8888 53.9597C95.6749 53.8437 95.3928 53.7857 95.0425 53.7857H93.7186V59.8696H92.6642ZM101.856 57.6961V54.6285H102.88V59.8696H101.877V58.962H101.822C101.702 59.2418 101.508 59.475 101.242 59.6615C100.978 59.8457 100.65 59.9379 100.256 59.9379C99.9195 59.9379 99.6215 59.8639 99.3621 59.7161C99.1051 59.5659 98.9026 59.3442 98.7548 59.0507C98.6092 58.7573 98.5364 58.3944 98.5364 57.9622V54.6285H99.5566V57.8394C99.5566 58.1965 99.6556 58.4809 99.8535 58.6924C100.051 58.904 100.308 59.0098 100.625 59.0098C100.816 59.0098 101.006 58.962 101.194 58.8664C101.386 58.7709 101.544 58.6265 101.669 58.4331C101.796 58.2397 101.859 57.9941 101.856 57.6961ZM104.059 59.8696V54.6285H105.045V55.4611H105.1C105.195 55.179 105.363 54.9572 105.605 54.7957C105.848 54.6319 106.123 54.55 106.43 54.55C106.494 54.55 106.569 54.5523 106.655 54.5568C106.744 54.5614 106.814 54.5671 106.864 54.5739V55.5498C106.823 55.5384 106.75 55.5259 106.645 55.5123C106.541 55.4963 106.436 55.4884 106.331 55.4884C106.09 55.4884 105.875 55.5396 105.686 55.6419C105.5 55.742 105.352 55.8819 105.243 56.0616C105.134 56.2391 105.079 56.4415 105.079 56.669V59.8696H104.059ZM109.626 59.9754C109.109 59.9754 108.664 59.8651 108.291 59.6444C107.921 59.4215 107.634 59.1087 107.432 58.7061C107.231 58.3012 107.131 57.8269 107.131 57.2832C107.131 56.7463 107.231 56.2732 107.432 55.8637C107.634 55.4542 107.916 55.1346 108.278 54.9049C108.642 54.6751 109.067 54.5603 109.554 54.5603C109.85 54.5603 110.136 54.6092 110.414 54.707C110.691 54.8048 110.94 54.9583 111.161 55.1676C111.382 55.3769 111.556 55.6487 111.683 55.9831C111.81 56.3153 111.874 56.719 111.874 57.1945V57.5562H107.708V56.7918H110.874C110.874 56.5234 110.82 56.2857 110.711 56.0787C110.601 55.8694 110.448 55.7045 110.25 55.5839C110.054 55.4633 109.825 55.4031 109.561 55.4031C109.274 55.4031 109.024 55.4736 108.81 55.6146C108.598 55.7534 108.435 55.9354 108.319 56.1606C108.205 56.3835 108.148 56.6258 108.148 56.8874V57.4845C108.148 57.8348 108.209 58.1328 108.332 58.3785C108.457 58.6242 108.631 58.8118 108.854 58.9415C109.077 59.0689 109.338 59.1326 109.636 59.1326C109.829 59.1326 110.005 59.1053 110.165 59.0507C110.324 58.9938 110.462 58.9097 110.578 58.7982C110.694 58.6867 110.782 58.5491 110.844 58.3853L111.809 58.5593C111.732 58.8437 111.593 59.0928 111.393 59.3066C111.195 59.5182 110.946 59.6831 110.646 59.8014C110.348 59.9174 110.008 59.9754 109.626 59.9754ZM115.837 59.8696H114.718L117.233 52.8814H118.451L120.966 59.8696H119.846L117.871 54.1508H117.816L115.837 59.8696ZM116.025 57.133H119.655V58.0202H116.025V57.133ZM122.837 52.8814V59.8696H121.782V52.8814H122.837ZM127.121 59.8696H126.002L128.517 52.8814H129.735L132.25 59.8696H131.131L129.155 54.1508H129.1L127.121 59.8696ZM127.309 57.133H130.939V58.0202H127.309V57.133ZM135.098 61.9442C134.682 61.9442 134.323 61.8896 134.023 61.7805C133.725 61.6713 133.482 61.5268 133.293 61.3471C133.104 61.1674 132.963 60.9706 132.87 60.7568L133.747 60.3951C133.808 60.4952 133.89 60.601 133.992 60.7124C134.097 60.8262 134.238 60.9229 134.415 61.0025C134.595 61.0821 134.826 61.1219 135.108 61.1219C135.495 61.1219 135.814 61.0275 136.067 60.8387C136.319 60.6522 136.446 60.3542 136.446 59.9447V58.9142H136.381C136.319 59.0257 136.231 59.1497 136.115 59.2861C136.001 59.4226 135.844 59.5409 135.644 59.641C135.444 59.7411 135.183 59.7911 134.862 59.7911C134.448 59.7911 134.075 59.6945 133.743 59.5011C133.413 59.3055 133.152 59.0177 132.958 58.6378C132.767 58.2557 132.672 57.7859 132.672 57.2286C132.672 56.6713 132.766 56.1936 132.955 55.7955C133.146 55.3974 133.408 55.0926 133.74 54.881C134.072 54.6672 134.448 54.5603 134.869 54.5603C135.195 54.5603 135.457 54.6148 135.657 54.724C135.858 54.831 136.013 54.9561 136.125 55.0994C136.239 55.2427 136.326 55.3689 136.388 55.4781H136.463V54.6285H137.463V59.9856C137.463 60.4361 137.358 60.8057 137.149 61.0946C136.939 61.3835 136.656 61.5973 136.299 61.7361C135.944 61.8749 135.544 61.9442 135.098 61.9442ZM135.088 58.9449C135.381 58.9449 135.629 58.8767 135.831 58.7402C136.036 58.6014 136.191 58.4035 136.296 58.1465C136.402 57.8871 136.456 57.5766 136.456 57.2149C136.456 56.8623 136.404 56.5518 136.299 56.2834C136.194 56.015 136.041 55.8057 135.838 55.6556C135.636 55.5032 135.386 55.4269 135.088 55.4269C134.781 55.4269 134.525 55.5066 134.32 55.6658C134.115 55.8228 133.96 56.0366 133.856 56.3073C133.753 56.578 133.702 56.8805 133.702 57.2149C133.702 57.5584 133.755 57.8598 133.859 58.1192C133.964 58.3785 134.119 58.581 134.323 58.7265C134.53 58.8721 134.785 58.9449 135.088 58.9449ZM140.898 59.9754C140.381 59.9754 139.936 59.8651 139.563 59.6444C139.193 59.4215 138.906 59.1087 138.703 58.7061C138.503 58.3012 138.403 57.8269 138.403 57.2832C138.403 56.7463 138.503 56.2732 138.703 55.8637C138.906 55.4542 139.188 55.1346 139.55 54.9049C139.914 54.6751 140.339 54.5603 140.826 54.5603C141.122 54.5603 141.408 54.6092 141.686 54.707C141.963 54.8048 142.212 54.9583 142.433 55.1676C142.654 55.3769 142.828 55.6487 142.955 55.9831C143.082 56.3153 143.146 56.719 143.146 57.1945V57.5562H138.98V56.7918H142.146C142.146 56.5234 142.092 56.2857 141.983 56.0787C141.873 55.8694 141.72 55.7045 141.522 55.5839C141.326 55.4633 141.097 55.4031 140.833 55.4031C140.546 55.4031 140.296 55.4736 140.082 55.6146C139.87 55.7534 139.707 55.9354 139.591 56.1606C139.477 56.3835 139.42 56.6258 139.42 56.8874V57.4845C139.42 57.8348 139.481 58.1328 139.604 58.3785C139.729 58.6242 139.903 58.8118 140.126 58.9415C140.349 59.0689 140.61 59.1326 140.908 59.1326C141.101 59.1326 141.277 59.1053 141.437 59.0507C141.596 58.9938 141.734 58.9097 141.85 58.7982C141.966 58.6867 142.054 58.5491 142.116 58.3853L143.081 58.5593C143.004 58.8437 142.865 59.0928 142.665 59.3066C142.467 59.5182 142.218 59.6831 141.918 59.8014C141.62 59.9174 141.28 59.9754 140.898 59.9754ZM145.106 56.7577V59.8696H144.086V54.6285H145.065V55.4815H145.13C145.251 55.204 145.439 54.9811 145.697 54.8128C145.956 54.6444 146.282 54.5603 146.676 54.5603C147.033 54.5603 147.346 54.6353 147.614 54.7855C147.883 54.9333 148.091 55.154 148.239 55.4474C148.386 55.7409 148.46 56.1037 148.46 56.5359V59.8696H147.44V56.6588C147.44 56.2789 147.341 55.982 147.143 55.7682C146.945 55.5521 146.674 55.444 146.328 55.444C146.091 55.444 145.881 55.4952 145.697 55.5976C145.515 55.6999 145.37 55.8501 145.263 56.048C145.159 56.2436 145.106 56.4802 145.106 56.7577ZM152.083 54.6285V55.4474H149.22V54.6285H152.083ZM149.988 53.3728H151.008V58.3307C151.008 58.5286 151.038 58.6776 151.097 58.7777C151.156 58.8755 151.232 58.9426 151.326 58.979C151.421 59.0132 151.525 59.0302 151.636 59.0302C151.718 59.0302 151.79 59.0245 151.851 59.0132C151.912 59.0018 151.96 58.9927 151.994 58.9859L152.179 59.8287C152.119 59.8514 152.035 59.8742 151.926 59.8969C151.817 59.9219 151.68 59.9356 151.517 59.9379C151.248 59.9424 150.998 59.8947 150.766 59.7946C150.534 59.6945 150.346 59.5398 150.203 59.3305C150.06 59.1212 149.988 58.8585 149.988 58.5423V53.3728ZM156.862 55.9081L155.938 56.0719C155.899 55.9536 155.838 55.841 155.754 55.734C155.672 55.6271 155.56 55.5396 155.419 55.4713C155.278 55.4031 155.102 55.3689 154.89 55.3689C154.601 55.3689 154.36 55.4338 154.167 55.5634C153.973 55.6908 153.877 55.8557 153.877 56.0582C153.877 56.2334 153.942 56.3744 154.071 56.4813C154.201 56.5882 154.41 56.6758 154.699 56.7441L155.532 56.9351C156.014 57.0466 156.373 57.2184 156.61 57.4504C156.847 57.6824 156.965 57.9838 156.965 58.3546C156.965 58.6685 156.874 58.9483 156.692 59.194C156.512 59.4374 156.261 59.6285 155.938 59.7673C155.617 59.906 155.245 59.9754 154.822 59.9754C154.235 59.9754 153.756 59.8503 153.385 59.6001C153.015 59.3476 152.787 58.9893 152.703 58.5252L153.689 58.3751C153.751 58.6321 153.877 58.8266 154.068 58.9586C154.259 59.0882 154.508 59.1531 154.815 59.1531C155.15 59.1531 155.417 59.0837 155.617 58.9449C155.817 58.8039 155.917 58.6321 155.917 58.4297C155.917 58.2659 155.856 58.1283 155.733 58.0168C155.612 57.9053 155.427 57.8212 155.177 57.7643L154.29 57.5698C153.801 57.4583 153.439 57.2809 153.205 57.0375C152.973 56.7941 152.857 56.4859 152.857 56.1128C152.857 55.8034 152.943 55.5327 153.116 55.3007C153.289 55.0687 153.528 54.8878 153.832 54.7582C154.137 54.6262 154.486 54.5603 154.88 54.5603C155.446 54.5603 155.892 54.6831 156.218 54.9288C156.543 55.1722 156.758 55.4986 156.862 55.9081Z" fill="#CECECE"/>
</svg>
