<svg width="300" height="115" viewBox="0 0 1297 529" fill="none" xmlns="http://www.w3.org/2000/svg">
<path d="M1088.4 418.971C1045.62 418.971 1010.97 405.166 984.452 377.556C957.939 349.946 944.683 313.193 944.683 267.298C944.683 221.403 957.939 184.65 984.452 157.04C1010.97 129.43 1045.62 115.625 1088.4 115.625C1130.82 115.625 1165.29 129.43 1191.8 157.04C1218.32 184.65 1231.57 221.403 1231.57 267.298C1231.57 313.193 1218.32 349.946 1191.8 377.556C1165.29 405.166 1130.82 418.971 1088.4 418.971ZM1088.4 370.425C1114.37 370.425 1134.94 361.465 1150.11 343.546C1165.47 325.444 1173.15 300.028 1173.15 267.298C1173.15 234.568 1165.47 209.152 1150.11 191.05C1134.94 172.948 1114.37 163.897 1088.4 163.897C1062.25 163.897 1041.5 172.948 1026.14 191.05C1010.78 209.152 1003.1 234.568 1003.1 267.298C1003.1 300.028 1010.78 325.444 1026.14 343.546C1041.5 361.465 1062.25 370.425 1088.4 370.425Z" fill="white"/>
<path d="M809.859 115.625C841.675 115.625 866.543 124.493 884.462 142.23C902.564 159.783 911.615 184.925 911.615 217.655V412.115H855.389V225.609C855.389 185.199 835.001 164.994 794.226 164.994C785.266 164.994 776.581 166.731 768.17 170.205C759.759 173.497 751.988 178.434 744.857 185.016C737.725 191.416 731.966 200.101 727.577 211.072C723.189 222.043 720.995 234.568 720.995 248.648V412.115H665.043V122.208H718.801V165.543C729.04 150.366 741.84 138.298 757.199 129.339C772.741 120.196 790.295 115.625 809.859 115.625Z" fill="white"/>
<path d="M564.506 122.208H618.538V401.418C618.538 440.548 606.744 471.541 583.157 494.397C559.752 517.436 525.468 528.955 480.304 528.955C441.906 528.955 411.644 520.27 389.519 502.899C367.395 485.529 354.961 462.032 352.218 432.411H408.444C412.833 466.421 436.969 483.426 480.853 483.426C507.366 483.426 527.57 476.569 541.467 462.855C555.363 449.324 562.312 429.211 562.312 402.515V370.425C540.37 400.412 509.286 415.406 469.059 415.406C428.832 415.406 396.559 401.784 372.24 374.539C348.104 347.112 336.036 310.725 336.036 265.378C336.036 219.849 348.013 183.553 371.966 156.492C396.102 129.247 428.283 115.625 468.51 115.625C510.383 115.625 542.381 131.533 564.506 163.349V122.208ZM479.207 367.134C505.354 367.134 526.016 358.174 541.193 340.255C556.369 322.336 563.957 297.377 563.957 265.378C563.957 233.38 556.369 208.512 541.193 190.776C526.016 172.857 505.354 163.897 479.207 163.897C453.425 163.897 432.855 173.04 417.495 191.324C402.136 209.609 394.456 234.294 394.456 265.378C394.456 296.646 402.136 321.422 417.495 339.706C432.855 357.991 453.425 367.134 479.207 367.134Z" fill="white"/>
<path fill-rule="evenodd" clip-rule="evenodd" d="M97.6417 318.247L216.598 0H161.448L0.000123631 409.113H63.3573L97.6417 318.247Z" fill="white"/>
<rect width="194.773" height="53" transform="matrix(-1 0 0 1 303.024 359.281)" fill="white"/>
<path d="M1223.64 55.8242V65.9961H1204.48V115.625H1193.08V65.9961H1173.93V55.8242H1223.64ZM1274.56 55.8242H1291.01V115.625H1280.18V97.4141C1280.18 87.2695 1280.29 77.3848 1280.51 67.7598C1279.22 72.1074 1277.72 76.7012 1276 81.541L1263.9 115.625H1254.54L1242.36 81.541C1240.67 76.5918 1239.19 72.0527 1237.93 67.9238C1238.15 77.4668 1238.26 87.2969 1238.26 97.4141V115.625H1227.35V55.8242H1243.8L1254.13 84.8633C1255.69 89.6211 1257.4 95.0352 1259.26 101.105C1261.07 94.8984 1262.83 89.293 1264.55 84.2891L1274.56 55.8242Z" fill="white"/>
</svg>
