<svg width="310" height="121" viewBox="0 0 159 62" fill="none" xmlns="http://www.w3.org/2000/svg">
<path d="M36.7775 0.162842H13.6666V8.27323H31.1352L46.0219 47.8408H55.6385L36.7775 0.162842Z" fill="black"/>
<path d="M24.2579 39.7306H0.59375V47.841H24.2579V39.7306Z" fill="black"/>
<path fill-rule="evenodd" clip-rule="evenodd" d="M87.051 46.6344L87.0245 46.6079C86.8536 51.0088 85.4902 54.384 82.8784 56.6795C81.1897 58.173 78.7551 59.2443 76.0639 59.8375C73.368 60.4317 70.384 60.5532 67.5724 60.1208C61.9683 59.2589 56.9026 56.1529 56.4086 50.0458L56.373 49.6062H64.1751L64.2282 49.9511C64.6456 52.6626 67.0848 54.0348 69.9675 54.3213C71.3961 54.4633 72.893 54.3296 74.2167 53.9709C75.5459 53.6106 76.6664 53.0328 77.3736 52.3145L77.3847 52.3033L77.3965 52.2929C77.8517 51.8971 78.2097 51.3064 78.4839 50.5581C78.7574 49.8116 78.9388 48.9324 79.056 47.9877C79.2907 46.096 79.2619 44.0003 79.2378 42.2828L79.2377 42.2791L79.2348 42.0697C77.2808 45.1336 74.7313 46.8427 72.0383 47.5088C69.056 48.2464 65.9376 47.6956 63.3122 46.359C60.3027 44.9118 58.2896 42.2756 57.038 39.2495C55.7868 36.2241 55.2846 32.7828 55.309 29.6673C55.2769 23.5948 58.1265 16.4348 63.872 13.7383C66.4504 12.508 69.6274 12.0209 72.5759 12.7156C75.1703 13.327 77.578 14.8525 79.2253 17.5644V13.2681H87.051V46.6344ZM77.2085 37.9147C75.8239 40.0366 73.7856 41.406 71.0885 41.3657L71.0806 41.3657C68.4237 41.3772 66.4253 40.0105 65.0734 37.9046C63.714 35.787 63.0208 32.933 63.0208 30.0553C63.0208 27.1776 63.714 24.3241 65.0734 22.2075C66.4252 20.1028 68.4234 18.7376 71.0803 18.751L71.0872 18.751L71.0941 18.7508C73.8353 18.6722 75.8809 20.0139 77.2572 22.1114C78.6425 24.2225 79.3405 27.0937 79.3301 29.9959C79.3196 32.8977 78.6009 35.781 77.2085 37.9147Z" fill="black"/>
<path d="M99.7408 17.7477V13.2515H92.3056V47.8651H100.107V26.6577C100.107 25.5643 100.286 24.5287 100.636 23.5487C100.986 22.5683 101.474 21.7363 102.087 21.0465L102.094 21.0385C102.713 20.3045 103.451 19.7493 104.335 19.3682L104.342 19.3653L104.349 19.3622C105.232 18.9434 106.229 18.7263 107.363 18.7263C109.376 18.7263 110.778 19.2752 111.649 20.2996L111.655 20.3063C112.545 21.3059 113.066 22.9852 113.147 25.4362V47.8651H120.948V23.5909C120.948 19.9208 119.925 17.0928 117.812 15.1942C115.716 13.3118 112.868 12.3893 109.324 12.3893C107.173 12.3893 105.198 12.9106 103.416 13.9742C101.94 14.8213 100.72 16.2823 99.7408 17.7477Z" fill="black"/>
<path fill-rule="evenodd" clip-rule="evenodd" d="M154.284 17.8865C151.533 14.4551 147.402 12.2284 141.925 12.3975C136.447 12.2284 132.316 14.4551 129.565 17.8865C126.821 21.3087 125.462 25.9091 125.463 30.4885C125.463 35.0679 126.823 39.6677 129.567 43.0889C132.319 46.5192 136.449 48.7444 141.925 48.5733C147.4 48.7444 151.53 46.5192 154.282 43.0889C157.026 39.6677 158.386 35.0679 158.386 30.4885C158.387 25.9091 157.028 21.3087 154.284 17.8865ZM148.399 38.6267C146.946 40.8124 144.793 42.2395 141.926 42.2279H141.923C139.056 42.2395 136.903 40.8124 135.45 38.6267C133.989 36.4289 133.243 33.4691 133.241 30.4861C133.239 27.5031 133.981 24.5441 135.441 22.3476C136.893 20.1634 139.047 18.7374 141.923 18.7509L141.927 18.7509C144.802 18.7374 146.956 20.1634 148.408 22.3476C149.869 24.5441 150.61 27.5031 150.608 30.4861C150.606 33.4691 149.861 36.4289 148.399 38.6267Z" fill="black"/>
<path d="M92.5724 59.7393V52.7511H95.0633C95.607 52.7511 96.0574 52.85 96.4146 53.0479C96.7717 53.2458 97.039 53.5165 97.2164 53.86C97.3939 54.2013 97.4826 54.5857 97.4826 55.0134C97.4826 55.4433 97.3927 55.83 97.213 56.1735C97.0356 56.5147 96.7672 56.7854 96.4077 56.9856C96.0506 57.1835 95.6013 57.2825 95.0599 57.2825H93.347V56.3885H94.9644C95.3079 56.3885 95.5865 56.3293 95.8004 56.211C96.0142 56.0905 96.1712 55.9267 96.2713 55.7197C96.3713 55.5127 96.4214 55.2772 96.4214 55.0134C96.4214 54.7495 96.3713 54.5152 96.2713 54.3105C96.1712 54.1057 96.0131 53.9453 95.797 53.8293C95.5831 53.7133 95.3011 53.6553 94.9507 53.6553H93.6268V59.7393H92.5724ZM101.765 57.5657V54.4981H102.788V59.7393H101.785V58.8316H101.731C101.61 59.1114 101.417 59.3446 101.15 59.5311C100.887 59.7154 100.558 59.8075 100.164 59.8075C99.8277 59.8075 99.5297 59.7336 99.2703 59.5857C99.0133 59.4356 98.8108 59.2138 98.663 58.9203C98.5174 58.6269 98.4446 58.2641 98.4446 57.8318V54.4981H99.4648V57.709C99.4648 58.0661 99.5638 58.3505 99.7617 58.562C99.9596 58.7736 100.217 58.8794 100.533 58.8794C100.724 58.8794 100.914 58.8316 101.103 58.7361C101.294 58.6405 101.452 58.4961 101.577 58.3027C101.704 58.1094 101.767 57.8637 101.765 57.5657ZM103.967 59.7393V54.4981H104.953V55.3307H105.008C105.103 55.0486 105.272 54.8268 105.513 54.6653C105.756 54.5015 106.031 54.4196 106.338 54.4196C106.402 54.4196 106.477 54.4219 106.564 54.4265C106.652 54.431 106.722 54.4367 106.772 54.4435V55.4194C106.731 55.408 106.658 55.3955 106.553 55.3819C106.449 55.366 106.344 55.358 106.24 55.358C105.998 55.358 105.783 55.4092 105.595 55.5115C105.408 55.6116 105.26 55.7515 105.151 55.9312C105.042 56.1087 104.987 56.3111 104.987 56.5386V59.7393H103.967ZM109.534 59.845C109.017 59.845 108.573 59.7347 108.2 59.5141C107.829 59.2911 107.542 58.9783 107.34 58.5757C107.14 58.1708 107.039 57.6965 107.039 57.1528C107.039 56.616 107.14 56.1428 107.34 55.7333C107.542 55.3239 107.824 55.0043 108.186 54.7745C108.55 54.5448 108.975 54.4299 109.462 54.4299C109.758 54.4299 110.044 54.4788 110.322 54.5766C110.599 54.6744 110.849 54.828 111.069 55.0372C111.29 55.2465 111.464 55.5184 111.591 55.8528C111.719 56.1849 111.782 56.5887 111.782 57.0641V57.4258H107.616V56.6615H110.783C110.783 56.393 110.728 56.1553 110.619 55.9483C110.51 55.739 110.356 55.5741 110.158 55.4535C109.963 55.333 109.733 55.2727 109.469 55.2727C109.182 55.2727 108.932 55.3432 108.718 55.4842C108.507 55.623 108.343 55.805 108.227 56.0302C108.113 56.2531 108.056 56.4954 108.056 56.757V57.3541C108.056 57.7045 108.118 58.0024 108.241 58.2481C108.366 58.4938 108.54 58.6815 108.763 58.8111C108.986 58.9385 109.246 59.0022 109.544 59.0022C109.737 59.0022 109.914 58.9749 110.073 58.9203C110.232 58.8635 110.37 58.7793 110.486 58.6678C110.602 58.5564 110.69 58.4187 110.752 58.255L111.718 58.429C111.64 58.7133 111.501 58.9624 111.301 59.1762C111.103 59.3878 110.854 59.5527 110.554 59.671C110.256 59.787 109.916 59.845 109.534 59.845ZM115.745 59.7393H114.626L117.141 52.7511H118.359L120.874 59.7393H119.755L117.779 54.0204H117.724L115.745 59.7393ZM115.933 57.0027H119.563V57.8898H115.933V57.0027ZM122.745 52.7511V59.7393H121.691V52.7511H122.745ZM127.029 59.7393H125.91L128.425 52.7511H129.643L132.158 59.7393H131.039L129.063 54.0204H129.009L127.029 59.7393ZM127.217 57.0027H130.848V57.8898H127.217V57.0027ZM135.006 61.8139C134.59 61.8139 134.232 61.7593 133.931 61.6501C133.633 61.5409 133.39 61.3964 133.201 61.2167C133.012 61.037 132.871 60.8403 132.778 60.6264L133.655 60.2647C133.716 60.3648 133.798 60.4706 133.901 60.5821C134.005 60.6958 134.146 60.7925 134.324 60.8721C134.503 60.9517 134.734 60.9915 135.016 60.9915C135.403 60.9915 135.723 60.8971 135.975 60.7083C136.228 60.5218 136.354 60.2238 136.354 59.8143V58.7838H136.289C136.228 58.8953 136.139 59.0193 136.023 59.1558C135.909 59.2923 135.752 59.4105 135.552 59.5106C135.352 59.6107 135.091 59.6608 134.771 59.6608C134.357 59.6608 133.984 59.5641 133.651 59.3707C133.322 59.1751 133.06 58.8873 132.867 58.5075C132.676 58.1253 132.58 57.6555 132.58 57.0982C132.58 56.5409 132.674 56.0632 132.863 55.6651C133.054 55.267 133.316 54.9622 133.648 54.7506C133.98 54.5368 134.357 54.4299 134.777 54.4299C135.103 54.4299 135.365 54.4845 135.566 54.5937C135.766 54.7006 135.922 54.8257 136.033 54.969C136.147 55.1123 136.234 55.2386 136.296 55.3478H136.371V54.4981H137.371V59.8553C137.371 60.3057 137.266 60.6753 137.057 60.9642C136.848 61.2531 136.564 61.467 136.207 61.6057C135.852 61.7445 135.452 61.8139 135.006 61.8139ZM134.996 58.8146C135.289 58.8146 135.537 58.7463 135.74 58.6098C135.944 58.4711 136.099 58.2732 136.204 58.0161C136.311 57.7568 136.364 57.4463 136.364 57.0846C136.364 56.732 136.312 56.4215 136.207 56.153C136.103 55.8846 135.949 55.6753 135.747 55.5252C135.544 55.3728 135.294 55.2966 134.996 55.2966C134.689 55.2966 134.433 55.3762 134.228 55.5354C134.023 55.6924 133.869 55.9062 133.764 56.1769C133.662 56.4476 133.61 56.7502 133.61 57.0846C133.61 57.4281 133.663 57.7295 133.767 57.9888C133.872 58.2481 134.027 58.4506 134.232 58.5962C134.439 58.7418 134.693 58.8146 134.996 58.8146ZM140.806 59.845C140.289 59.845 139.845 59.7347 139.472 59.5141C139.101 59.2911 138.814 58.9783 138.612 58.5757C138.411 58.1708 138.311 57.6965 138.311 57.1528C138.311 56.616 138.411 56.1428 138.612 55.7333C138.814 55.3239 139.096 55.0043 139.458 54.7745C139.822 54.5448 140.247 54.4299 140.734 54.4299C141.03 54.4299 141.316 54.4788 141.594 54.5766C141.871 54.6744 142.121 54.828 142.341 55.0372C142.562 55.2465 142.736 55.5184 142.863 55.8528C142.991 56.1849 143.054 56.5887 143.054 57.0641V57.4258H138.888V56.6615H142.055C142.055 56.393 142 56.1553 141.891 55.9483C141.782 55.739 141.628 55.5741 141.43 55.4535C141.235 55.333 141.005 55.2727 140.741 55.2727C140.454 55.2727 140.204 55.3432 139.99 55.4842C139.779 55.623 139.615 55.805 139.499 56.0302C139.385 56.2531 139.328 56.4954 139.328 56.757V57.3541C139.328 57.7045 139.39 58.0024 139.512 58.2481C139.638 58.4938 139.812 58.6815 140.035 58.8111C140.257 58.9385 140.518 59.0022 140.816 59.0022C141.009 59.0022 141.186 58.9749 141.345 58.9203C141.504 58.8635 141.642 58.7793 141.758 58.6678C141.874 58.5564 141.962 58.4187 142.024 58.255L142.99 58.429C142.912 58.7133 142.773 58.9624 142.573 59.1762C142.375 59.3878 142.126 59.5527 141.826 59.671C141.528 59.787 141.188 59.845 140.806 59.845ZM145.014 56.6273V59.7393H143.994V54.4981H144.973V55.3512H145.038C145.159 55.0736 145.348 54.8507 145.605 54.6824C145.864 54.514 146.19 54.4299 146.584 54.4299C146.941 54.4299 147.254 54.5049 147.522 54.6551C147.791 54.8029 147.999 55.0236 148.147 55.3171C148.295 55.6105 148.369 55.9733 148.369 56.4055V59.7393H147.348V56.5284C147.348 56.1485 147.249 55.8516 147.052 55.6378C146.854 55.4217 146.582 55.3136 146.236 55.3136C145.999 55.3136 145.789 55.3648 145.605 55.4672C145.423 55.5696 145.278 55.7197 145.171 55.9176C145.067 56.1132 145.014 56.3498 145.014 56.6273ZM151.991 54.4981V55.3171H149.128V54.4981H151.991ZM149.896 53.2424H150.916V58.2004C150.916 58.3983 150.946 58.5473 151.005 58.6474C151.064 58.7452 151.141 58.8123 151.234 58.8487C151.329 58.8828 151.433 58.8999 151.544 58.8999C151.626 58.8999 151.698 58.8942 151.759 58.8828C151.821 58.8714 151.868 58.8623 151.903 58.8555L152.087 59.6983C152.028 59.7211 151.944 59.7438 151.834 59.7666C151.725 59.7916 151.589 59.8052 151.425 59.8075C151.156 59.8121 150.906 59.7643 150.674 59.6642C150.442 59.5641 150.254 59.4094 150.111 59.2001C149.968 58.9908 149.896 58.7281 149.896 58.4119V53.2424ZM156.771 55.7777L155.846 55.9415C155.807 55.8232 155.746 55.7106 155.662 55.6037C155.58 55.4968 155.468 55.4092 155.327 55.3409C155.186 55.2727 155.01 55.2386 154.798 55.2386C154.51 55.2386 154.268 55.3034 154.075 55.4331C153.882 55.5605 153.785 55.7254 153.785 55.9278C153.785 56.103 153.85 56.244 153.979 56.3509C154.109 56.4579 154.318 56.5454 154.607 56.6137L155.44 56.8048C155.922 56.9162 156.282 57.088 156.518 57.32C156.755 57.552 156.873 57.8535 156.873 58.2242C156.873 58.5382 156.782 58.818 156.6 59.0636C156.42 59.307 156.169 59.4981 155.846 59.6369C155.525 59.7757 155.153 59.845 154.73 59.845C154.143 59.845 153.664 59.7199 153.294 59.4697C152.923 59.2172 152.695 58.8589 152.611 58.3949L153.597 58.2447C153.659 58.5018 153.785 58.6963 153.976 58.8282C154.167 58.9579 154.416 59.0227 154.723 59.0227C155.058 59.0227 155.325 58.9533 155.525 58.8146C155.725 58.6735 155.825 58.5018 155.825 58.2993C155.825 58.1355 155.764 57.9979 155.641 57.8864C155.521 57.775 155.335 57.6908 155.085 57.6339L154.198 57.4394C153.709 57.328 153.347 57.1505 153.113 56.9071C152.881 56.6637 152.765 56.3555 152.765 55.9824C152.765 55.6731 152.851 55.4024 153.024 55.1703C153.197 54.9383 153.436 54.7574 153.741 54.6278C154.045 54.4958 154.395 54.4299 154.788 54.4299C155.355 54.4299 155.8 54.5527 156.126 54.7984C156.451 55.0418 156.666 55.3682 156.771 55.7777Z" fill="#646464"/>
</svg>
